<svg width="343" height="100" viewBox="0 0 343 100" fill="none" xmlns="http://www.w3.org/2000/svg">
<rect width="343" height="100" fill="white"/>
<rect x="24.5337" y="32.5" width="35" height="35" fill="#F48686"/>
<rect x="198.466" y="32.5" width="35" height="35" fill="#87A6F7"/>
<rect x="285.932" y="33" width="34" height="34" stroke="black"/>
<path d="M301.29 53.4951C301.306 52.5267 301.416 51.7617 301.62 51.2002C301.823 50.6387 302.238 50.0161 302.865 49.3325L304.464 47.6846C305.147 46.9115 305.489 46.0814 305.489 45.1943C305.489 44.3398 305.265 43.6725 304.818 43.1924C304.37 42.7041 303.719 42.46 302.865 42.46C302.035 42.46 301.367 42.6797 300.863 43.1191C300.358 43.5586 300.106 44.1486 300.106 44.8892H297.848C297.864 43.5708 298.332 42.5088 299.251 41.7031C300.179 40.8893 301.384 40.4824 302.865 40.4824C304.403 40.4824 305.599 40.8975 306.453 41.7275C307.316 42.5495 307.747 43.6807 307.747 45.1211C307.747 46.5452 307.088 47.9491 305.77 49.3325L304.439 50.6509C303.845 51.3101 303.548 52.2581 303.548 53.4951H301.29ZM301.192 57.3647C301.192 56.9985 301.302 56.6934 301.522 56.4492C301.75 56.1969 302.083 56.0708 302.523 56.0708C302.962 56.0708 303.296 56.1969 303.524 56.4492C303.752 56.6934 303.866 56.9985 303.866 57.3647C303.866 57.731 303.752 58.0361 303.524 58.2803C303.296 58.5163 302.962 58.6343 302.523 58.6343C302.083 58.6343 301.75 58.5163 301.522 58.2803C301.302 58.0361 301.192 57.731 301.192 57.3647Z" fill="black"/>
<rect x="111.5" y="32.5" width="35" height="35" fill="#97ECA5"/>
<path d="M111.854 50.3536C112.049 50.1583 112.049 49.8417 111.854 49.6464L108.672 46.4645C108.476 46.2692 108.16 46.2692 107.964 46.4645C107.769 46.6597 107.769 46.9763 107.964 47.1716L110.793 50L107.964 52.8284C107.769 53.0237 107.769 53.3403 107.964 53.5355C108.16 53.7308 108.476 53.7308 108.672 53.5355L111.854 50.3536ZM59.5337 50.5H111.5V49.5H59.5337V50.5Z" fill="#525252"/>
<path d="M111.854 50.3536C112.049 50.1583 112.049 49.8417 111.854 49.6464L108.672 46.4645C108.476 46.2692 108.16 46.2692 107.964 46.4645C107.769 46.6597 107.769 46.9763 107.964 47.1716L110.793 50L107.964 52.8284C107.769 53.0237 107.769 53.3403 107.964 53.5355C108.16 53.7308 108.476 53.7308 108.672 53.5355L111.854 50.3536ZM59.5337 50.5H111.5V49.5H59.5337V50.5Z" fill="#525252"/>
<path d="M111.854 50.3536C112.049 50.1583 112.049 49.8417 111.854 49.6464L108.672 46.4645C108.476 46.2692 108.16 46.2692 107.964 46.4645C107.769 46.6597 107.769 46.9763 107.964 47.1716L110.793 50L107.964 52.8284C107.769 53.0237 107.769 53.3403 107.964 53.5355C108.16 53.7308 108.476 53.7308 108.672 53.5355L111.854 50.3536ZM59.5337 50.5H111.5V49.5H59.5337V50.5Z" fill="#525252"/>
<path d="M285.786 50.3536C285.981 50.1583 285.981 49.8417 285.786 49.6464L282.604 46.4645C282.408 46.2692 282.092 46.2692 281.896 46.4645C281.701 46.6597 281.701 46.9763 281.896 47.1716L284.725 50L281.896 52.8284C281.701 53.0237 281.701 53.3403 281.896 53.5355C282.092 53.7308 282.408 53.7308 282.604 53.5355L285.786 50.3536ZM233.466 50.5H285.432V49.5H233.466V50.5Z" fill="#525252"/>
<path d="M285.786 50.3536C285.981 50.1583 285.981 49.8417 285.786 49.6464L282.604 46.4645C282.408 46.2692 282.092 46.2692 281.896 46.4645C281.701 46.6597 281.701 46.9763 281.896 47.1716L284.725 50L281.896 52.8284C281.701 53.0237 281.701 53.3403 281.896 53.5355C282.092 53.7308 282.408 53.7308 282.604 53.5355L285.786 50.3536ZM233.466 50.5H285.432V49.5H233.466V50.5Z" fill="#525252"/>
<path d="M285.786 50.3536C285.981 50.1583 285.981 49.8417 285.786 49.6464L282.604 46.4645C282.408 46.2692 282.092 46.2692 281.896 46.4645C281.701 46.6597 281.701 46.9763 281.896 47.1716L284.725 50L281.896 52.8284C281.701 53.0237 281.701 53.3403 281.896 53.5355C282.092 53.7308 282.408 53.7308 282.604 53.5355L285.786 50.3536ZM233.466 50.5H285.432V49.5H233.466V50.5Z" fill="#525252"/>
<path d="M198.82 50.3536C199.015 50.1583 199.015 49.8417 198.82 49.6464L195.638 46.4645C195.442 46.2692 195.126 46.2692 194.93 46.4645C194.735 46.6597 194.735 46.9763 194.93 47.1716L197.759 50L194.93 52.8284C194.735 53.0237 194.735 53.3403 194.93 53.5355C195.126 53.7308 195.442 53.7308 195.638 53.5355L198.82 50.3536ZM146.5 50.5H198.466V49.5H146.5V50.5Z" fill="#525252"/>
<path d="M198.82 50.3536C199.015 50.1583 199.015 49.8417 198.82 49.6464L195.638 46.4645C195.442 46.2692 195.126 46.2692 194.93 46.4645C194.735 46.6597 194.735 46.9763 194.93 47.1716L197.759 50L194.93 52.8284C194.735 53.0237 194.735 53.3403 194.93 53.5355C195.126 53.7308 195.442 53.7308 195.638 53.5355L198.82 50.3536ZM146.5 50.5H198.466V49.5H146.5V50.5Z" fill="#525252"/>
<path d="M198.82 50.3536C199.015 50.1583 199.015 49.8417 198.82 49.6464L195.638 46.4645C195.442 46.2692 195.126 46.2692 194.93 46.4645C194.735 46.6597 194.735 46.9763 194.93 47.1716L197.759 50L194.93 52.8284C194.735 53.0237 194.735 53.3403 194.93 53.5355C195.126 53.7308 195.442 53.7308 195.638 53.5355L198.82 50.3536ZM146.5 50.5H198.466V49.5H146.5V50.5Z" fill="#525252"/>
</svg>
